<?xml version="1.0" encoding="UTF-8" standalone="no"?>
<svg
   xmlns:dc="http://purl.org/dc/elements/1.1/"
   xmlns:cc="http://creativecommons.org/ns#"
   xmlns:rdf="http://www.w3.org/1999/02/22-rdf-syntax-ns#"
   xmlns:svg="http://www.w3.org/2000/svg"
   xmlns="http://www.w3.org/2000/svg"
   viewBox="0 0 1122.52 793.70135"
   height="793.70135"
   width="1122.52"
   xml:space="preserve"
   id="svg2"
   version="1.1"><metadata
     id="metadata8"><rdf:RDF><cc:Work
         rdf:about=""><dc:format>image/svg+xml</dc:format><dc:type
           rdf:resource="http://purl.org/dc/dcmitype/StillImage" /></cc:Work></rdf:RDF></metadata><defs
     id="defs6"><clipPath
       id="clipPath18"
       clipPathUnits="userSpaceOnUse"><path
         id="path16"
         d="M 0,595.276 H 841.89 V 0 H 0 Z" /></clipPath></defs><g
     transform="matrix(1.3333333,0,0,-1.3333333,0,793.70133)"
     id="g10"><g
       id="g12"><g
         clip-path="url(#clipPath18)"
         id="g14"><g
           transform="translate(419.7875,382.6955)"
           id="g20"><path
             id="path22"
             style="fill:#f4eb33;fill-opacity:1;fill-rule:nonzero;stroke:none"
             d="m 0,0 14.292,-58.471 26.64,109.515 h 35.151 l 27.346,-109.515 c 0.556,2.066 1.347,5.482 2.378,10.249 l 23.07,99.266 h 31.335 L 119.361,-111.619 H 81.913 L 55.167,-4.011 29.353,-111.619 H -7.793 l -10.511,43.284 z" /></g><g
           transform="translate(407.1148,433.7396)"
           id="g24"><path
             id="path26"
             style="fill:#3a4992;fill-opacity:1;fill-rule:nonzero;stroke:none"
             d="M 0,0 H -37.146 L -62.96,-107.608 -89.705,0 h -37.449 l -40.851,-162.663 h 31.335 l 23.07,99.266 c 1.031,4.767 1.822,8.183 2.378,10.248 l 27.346,-109.514 h 35.151 l 26.64,109.514 c 0.556,-2.223 0.994,-3.891 1.313,-5.005 0.795,-3.018 1.232,-4.766 1.311,-5.243 l 13.83,-55.982 18.304,68.335 z" /></g><g
           transform="translate(262.9153,203.9827)"
           id="g28"><path
             id="path30"
             style="fill:#3a4992;fill-opacity:1;fill-rule:nonzero;stroke:none"
             d="M 0,0 -10.175,33.625 V 0 h -8.096 v 41.239 h 15.043 l 7.237,-24.683 7.615,24.683 h 15.09 V 0 H 16.985 V 33.625 L 6.612,0 Z" /></g><g
           transform="translate(327.3031,237.3662)"
           id="g32"><path
             id="path34"
             style="fill:#3a4992;fill-opacity:1;fill-rule:nonzero;stroke:none"
             d="m 0,0 h -19.638 v -8.458 h 15.439 v -7.765 h -15.439 v -9.004 H 0 v -8.156 H -29.456 V 7.855 L 0,7.855 Z" /></g><g
           transform="translate(342.5899,237.6391)"
           id="g36"><path
             id="path38"
             style="fill:#3a4992;fill-opacity:1;fill-rule:nonzero;stroke:none"
             d="m 0,0 v -25.891 h 3.98 c 3.517,0 6.13,1.313 7.838,3.942 1.708,2.628 2.563,5.715 2.563,9.26 0,2.497 -0.488,4.808 -1.463,6.933 -0.974,2.125 -2.185,3.615 -3.632,4.471 C 7.838,-0.429 6.1,0 4.07,0 Z M -9.486,7.583 H 3.1 c 5.131,0 8.956,-0.711 11.471,-2.13 2.515,-1.42 4.769,-3.667 6.761,-6.738 1.992,-3.072 2.988,-6.953 2.988,-11.646 0,-5.902 -1.741,-10.831 -5.222,-14.788 -3.481,-3.958 -8.281,-5.937 -14.398,-5.937 H -9.486 Z" /></g><path
           id="path40"
           style="fill:#3a4992;fill-opacity:1;fill-rule:nonzero;stroke:none"
           d="m 382.862,203.983 h -9.637 v 41.239 h 9.637 z" /><g
           transform="translate(440.6263,245.2217)"
           id="g42"><path
             id="path44"
             style="fill:#3a4992;fill-opacity:1;fill-rule:nonzero;stroke:none"
             d="m 0,0 -10.357,-41.239 h -9.494 l -6.781,27.281 -6.544,-27.281 h -9.417 L -53.202,0 h 9.857 l 5.686,-25.167 c 0.02,-0.12 0.131,-0.564 0.332,-1.329 0.081,-0.282 0.192,-0.705 0.333,-1.269 L -30.24,0 h 8.911 l 6.934,-27.765 c 0.14,0.523 0.34,1.39 0.603,2.598 L -7.944,0 Z" /></g><g
           transform="translate(452.6098,220.0857)"
           id="g46"><path
             id="path48"
             style="fill:#3a4992;fill-opacity:1;fill-rule:nonzero;stroke:none"
             d="M 0,0 H 8.737 L 4.407,14.472 Z M 11.03,25.136 23.938,-16.103 H 13.556 l -2.54,8.489 H -2.318 l -2.585,-8.489 h -8.47 l 13.218,41.239 z" /></g><g
           transform="translate(509.4799,236.1578)"
           id="g50"><path
             id="path52"
             style="fill:#3a4992;fill-opacity:1;fill-rule:nonzero;stroke:none"
             d="m 0,0 -8.218,-2.749 c -1.106,3.263 -3.446,4.894 -7.023,4.894 -3.817,0 -5.726,-1.238 -5.726,-3.716 0,-0.986 0.356,-1.823 1.071,-2.507 0.714,-0.685 2.327,-1.28 4.842,-1.785 4.203,-0.849 7.28,-1.705 9.231,-2.57 1.951,-0.867 3.596,-2.261 4.934,-4.184 1.337,-1.924 2.007,-4.072 2.007,-6.449 0,-3.726 -1.435,-6.947 -4.302,-9.666 -2.867,-2.719 -7.119,-4.077 -12.753,-4.077 -4.226,0 -7.824,0.962 -10.791,2.885 -2.968,1.923 -4.925,4.777 -5.871,8.564 l 8.943,2.025 c 1.005,-3.848 3.799,-5.771 8.381,-5.771 2.212,0 3.86,0.428 4.946,1.284 1.085,0.856 1.627,1.879 1.627,3.067 0,1.208 -0.492,2.145 -1.478,2.81 -0.986,0.665 -2.887,1.289 -5.701,1.874 -5.25,1.088 -8.992,2.574 -11.224,4.457 -2.233,1.883 -3.349,4.637 -3.349,8.262 0,3.665 1.333,6.757 3.999,9.275 2.666,2.516 6.282,3.775 10.85,3.775 C -7.516,9.698 -2.314,6.466 0,0" /></g><g
           transform="translate(543.3461,245.2217)"
           id="g54"><path
             id="path56"
             style="fill:#3a4992;fill-opacity:1;fill-rule:nonzero;stroke:none"
             d="M 0,0 V -8.157 H -10.211 V -41.239 H -20 V -8.157 H -30.272 V 0 Z" /></g><g
           transform="translate(576.9417,237.3662)"
           id="g58"><path
             id="path60"
             style="fill:#3a4992;fill-opacity:1;fill-rule:nonzero;stroke:none"
             d="m 0,0 h -19.638 v -8.458 h 15.439 v -7.765 h -15.439 v -9.004 H 0 v -8.156 H -29.457 V 7.855 L 0,7.855 Z" /></g><g
           transform="translate(283.3,182.9699)"
           id="g62"><path
             id="path64"
             style="fill:#f4eb33;fill-opacity:1;fill-rule:nonzero;stroke:none"
             d="m 0,0 c -0.974,2.326 -2.295,3.426 -4.777,3.426 -2.483,0 -4.212,-1.226 -4.212,-3.395 0,-5.123 12.132,-2.671 12.132,-10.78 0,-4.338 -3.143,-6.568 -7.637,-6.568 -4.275,0 -6.664,1.759 -8.047,5.845 l 2.798,0.942 c 0.911,-2.827 2.357,-4.179 5.374,-4.179 2.735,0 4.62,1.319 4.62,3.772 0,5.657 -12.037,2.922 -12.037,10.906 0,3.803 2.954,6.035 7.009,6.035 3.929,0 6.317,-1.793 7.323,-5.061 z" /></g><g
           transform="translate(317.6148,177.3131)"
           id="g66"><path
             id="path68"
             style="fill:#f4eb33;fill-opacity:1;fill-rule:nonzero;stroke:none"
             d="m 0,0 c 0,5.751 -2.389,9.114 -6.224,9.114 -3.865,0 -6.254,-3.363 -6.254,-9.114 0,-5.721 2.389,-9.084 6.254,-9.084 C -2.358,-9.084 0,-5.721 0,0 m -15.464,0 c 0,6.726 3.174,11.661 9.24,11.661 6.067,0 9.21,-4.935 9.21,-11.661 0,-7.198 -3.426,-11.661 -9.21,-11.661 -5.814,0 -9.24,4.463 -9.24,11.661" /></g><g
           transform="translate(337.502,166.0291)"
           id="g70"><path
             id="path72"
             style="fill:#f4eb33;fill-opacity:1;fill-rule:nonzero;stroke:none"
             d="M 0,0 V 22.567 H 3.017 V 2.641 h 9.838 l 0,-2.641 z" /></g><g
           transform="translate(379.7379,188.5958)"
           id="g74"><path
             id="path76"
             style="fill:#f4eb33;fill-opacity:1;fill-rule:nonzero;stroke:none"
             d="m 0,0 h 2.986 v -13.735 c 0,-5.751 -2.546,-9.208 -8.675,-9.208 -6.098,0 -8.235,3.457 -8.235,9.208 V 0 h 3.017 v -14.269 c 0,-4.117 1.509,-6.004 5.249,-6.004 3.709,0 5.658,1.887 5.658,6.004 z" /></g><g
           transform="translate(405.282,166.0291)"
           id="g78"><path
             id="path80"
             style="fill:#f4eb33;fill-opacity:1;fill-rule:nonzero;stroke:none"
             d="m 0,0 v 19.927 h -6.443 v 2.64 H 9.461 v -2.64 H 3.017 L 3.017,0 Z" /></g><path
           id="path82"
           style="fill:#f4eb33;fill-opacity:1;fill-rule:nonzero;stroke:none"
           d="m 431.017,188.596 h 3.017 v -22.567 h -3.017 z" /><g
           transform="translate(466.4034,177.3131)"
           id="g84"><path
             id="path86"
             style="fill:#f4eb33;fill-opacity:1;fill-rule:nonzero;stroke:none"
             d="m 0,0 c 0,5.751 -2.389,9.114 -6.224,9.114 -3.866,0 -6.254,-3.363 -6.254,-9.114 0,-5.721 2.388,-9.084 6.254,-9.084 C -2.357,-9.084 0,-5.721 0,0 m -15.464,0 c 0,6.726 3.174,11.661 9.24,11.661 6.067,0 9.209,-4.935 9.209,-11.661 0,-7.198 -3.425,-11.661 -9.209,-11.661 -5.814,0 -9.24,4.463 -9.24,11.661" /></g><g
           transform="translate(500.3076,166.0291)"
           id="g88"><path
             id="path90"
             style="fill:#f4eb33;fill-opacity:1;fill-rule:nonzero;stroke:none"
             d="m 0,0 -11.096,18.952 h -0.062 V 0 h -2.861 v 22.567 h 4.276 L 0.031,5.469 h 0.063 v 17.098 h 2.86 L 2.954,0 Z" /></g><g
           transform="translate(532.2647,182.9699)"
           id="g92"><path
             id="path94"
             style="fill:#f4eb33;fill-opacity:1;fill-rule:nonzero;stroke:none"
             d="m 0,0 c -0.975,2.326 -2.295,3.426 -4.777,3.426 -2.484,0 -4.213,-1.226 -4.213,-3.395 0,-5.123 12.132,-2.671 12.132,-10.78 0,-4.338 -3.142,-6.568 -7.637,-6.568 -4.275,0 -6.663,1.759 -8.046,5.845 l 2.797,0.942 c 0.911,-2.827 2.357,-4.179 5.374,-4.179 2.735,0 4.621,1.319 4.621,3.772 0,5.657 -12.038,2.922 -12.038,10.906 0,3.803 2.954,6.035 7.01,6.035 3.927,0 6.317,-1.793 7.322,-5.061 z" /></g></g></g></g></svg>